0 On   ch=1 n=48 v=91
0 On   ch=11 n=41 v=123
0 On   ch=12 n=48 v=101
0 On   ch=13 n=81 v=125
1 On   ch=14 n=57 v=97
14 Off  ch=12 n=48 v=101
15 Off  ch=14 n=57 v=97
28 Off  ch=1 n=48 v=91
30 On   ch=12 n=52 v=110
30 On   ch=14 n=60 v=31
39 Off  ch=11 n=41 v=123
45 Off  ch=12 n=52 v=110
45 Off  ch=14 n=60 v=31
60 On   ch=3 n=60 v=100
60 On   ch=12 n=57 v=108
60 On   ch=14 n=64 v=111
74 Off  ch=12 n=57 v=108
75 Off  ch=14 n=64 v=111
88 Off  ch=3 n=60 v=100
90 On   ch=11 n=41 v=122
90 On   ch=12 n=48 v=101
90 On   ch=14 n=57 v=97
104 Off  ch=12 n=48 v=101
105 Off  ch=14 n=57 v=97
120 On   ch=1 n=48 v=91
120 On   ch=2 n=60 v=100
120 On   ch=12 n=52 v=110
120 On   ch=14 n=60 v=31
122 Off  ch=11 n=41 v=122
135 Off  ch=12 n=52 v=110
135 Off  ch=14 n=60 v=31
148 Off  ch=1 n=48 v=91
148 Off  ch=2 n=60 v=100
150 On   ch=12 n=57 v=108
150 On   ch=14 n=64 v=111
164 Off  ch=12 n=57 v=108
165 Off  ch=14 n=64 v=111
180 On   ch=3 n=60 v=100
180 On   ch=11 n=41 v=116
180 On   ch=12 n=48 v=101
180 On   ch=14 n=57 v=97
195 Off  ch=12 n=48 v=101
195 Off  ch=14 n=57 v=97
203 Off  ch=11 n=41 v=116
208 Off  ch=3 n=60 v=100
210 On   ch=12 n=52 v=110
210 On   ch=14 n=60 v=31
224 Off  ch=12 n=52 v=110
225 Off  ch=14 n=60 v=31
240 On   ch=1 n=48 v=91
240 On   ch=11 n=41 v=121
240 On   ch=12 n=57 v=108
240 On   ch=14 n=64 v=111
254 Off  ch=12 n=57 v=108
255 Off  ch=14 n=64 v=111
268 Off  ch=1 n=48 v=91
270 On   ch=12 n=48 v=101
270 On   ch=14 n=57 v=97
283 Off  ch=11 n=41 v=121
285 Off  ch=12 n=48 v=101
285 Off  ch=14 n=57 v=97
300 On   ch=3 n=60 v=100
300 On   ch=12 n=52 v=110
300 On   ch=14 n=60 v=31
315 Off  ch=12 n=52 v=110
315 Off  ch=14 n=60 v=31
328 Off  ch=3 n=60 v=100
329 On   ch=11 n=41 v=117
330 On   ch=12 n=57 v=108
330 On   ch=14 n=64 v=111
344 Off  ch=12 n=57 v=108
345 Off  ch=14 n=64 v=111
359 On   ch=1 n=48 v=91
360 On   ch=2 n=60 v=100
360 On   ch=12 n=48 v=101
360 On   ch=14 n=57 v=97
361 Off  ch=11 n=41 v=117
374 Off  ch=12 n=48 v=101
375 Off  ch=14 n=57 v=97
388 Off  ch=1 n=48 v=91
388 Off  ch=2 n=60 v=100
389 On   ch=12 n=52 v=110
390 On   ch=14 n=60 v=31
404 Off  ch=12 n=52 v=110
405 Off  ch=14 n=60 v=31
420 On   ch=3 n=60 v=100
420 On   ch=11 n=41 v=117
420 On   ch=12 n=57 v=108
420 On   ch=14 n=64 v=111
434 Off  ch=12 n=57 v=108
435 Off  ch=14 n=64 v=111
446 Off  ch=11 n=41 v=117
448 Off  ch=3 n=60 v=100
450 On   ch=4 n=60 v=100
450 On   ch=12 n=48 v=101
450 On   ch=14 n=57 v=97
464 Off  ch=12 n=48 v=101
465 Off  ch=14 n=57 v=97
469 Off  ch=13 n=81 v=125
478 Off  ch=4 n=60 v=100
479 On   ch=1 n=48 v=91
480 On   ch=11 n=41 v=117
480 On   ch=12 n=52 v=110
480 On   ch=13 n=83 v=118
480 On   ch=14 n=60 v=31
494 Off  ch=12 n=52 v=110
495 Off  ch=14 n=60 v=31
508 Off  ch=1 n=48 v=91
510 On   ch=12 n=57 v=108
510 On   ch=14 n=64 v=111
514 Off  ch=11 n=41 v=117
524 Off  ch=12 n=57 v=108
525 Off  ch=14 n=64 v=111
539 On   ch=3 n=60 v=100
540 On   ch=12 n=48 v=101
540 On   ch=14 n=57 v=97
554 Off  ch=12 n=48 v=101
555 Off  ch=14 n=57 v=97
568 Off  ch=3 n=60 v=100
570 On   ch=11 n=41 v=119
570 On   ch=12 n=52 v=110
570 On   ch=14 n=60 v=31
584 Off  ch=12 n=52 v=110
585 Off  ch=14 n=60 v=31
600 On   ch=1 n=48 v=91
600 On   ch=2 n=60 v=100
600 Off  ch=11 n=41 v=119
600 On   ch=12 n=57 v=108
600 On   ch=14 n=64 v=111
614 Off  ch=12 n=57 v=108
615 Off  ch=14 n=64 v=111
628 Off  ch=1 n=48 v=91
628 Off  ch=2 n=60 v=100
630 On   ch=12 n=48 v=101
630 On   ch=14 n=57 v=97
644 Off  ch=12 n=48 v=101
645 Off  ch=14 n=57 v=97
660 On   ch=3 n=60 v=100
660 On   ch=11 n=41 v=119
660 On   ch=12 n=52 v=110
660 On   ch=14 n=60 v=31
674 Off  ch=12 n=52 v=110
675 Off  ch=14 n=60 v=31
686 Off  ch=11 n=41 v=119
688 Off  ch=3 n=60 v=100
690 On   ch=12 n=57 v=108
690 On   ch=14 n=64 v=111
704 Off  ch=12 n=57 v=108
705 Off  ch=14 n=64 v=111
719 On   ch=1 n=48 v=91
720 On   ch=11 n=41 v=118
720 On   ch=12 n=48 v=101
720 On   ch=13 n=84 v=109
720 On   ch=14 n=57 v=97
723 Off  ch=13 n=83 v=118
734 Off  ch=12 n=48 v=101
735 Off  ch=14 n=57 v=97
741 Off  ch=11 n=41 v=118
748 Off  ch=1 n=48 v=91
749 On   ch=12 n=52 v=110
750 On   ch=14 n=60 v=31
764 Off  ch=12 n=52 v=110
765 Off  ch=14 n=60 v=31
779 On   ch=3 n=60 v=100
780 On   ch=11 n=41 v=115
780 On   ch=12 n=57 v=108
780 On   ch=14 n=64 v=111
794 Off  ch=12 n=57 v=108
795 Off  ch=14 n=64 v=111
799 Off  ch=11 n=41 v=115
808 Off  ch=3 n=60 v=100
809 On   ch=12 n=48 v=101
810 On   ch=14 n=57 v=97
824 Off  ch=12 n=48 v=101
825 Off  ch=14 n=57 v=97
839 On   ch=1 n=48 v=91
840 On   ch=2 n=60 v=100
840 On   ch=11 n=41 v=118
840 On   ch=12 n=52 v=110
840 On   ch=14 n=60 v=31
854 Off  ch=12 n=52 v=110
855 Off  ch=14 n=60 v=31
859 Off  ch=11 n=41 v=118
868 Off  ch=1 n=48 v=91
868 Off  ch=2 n=60 v=100
870 On   ch=12 n=57 v=108
870 On   ch=14 n=64 v=111
884 Off  ch=12 n=57 v=108
885 Off  ch=14 n=64 v=111
899 On   ch=3 n=60 v=100
900 On   ch=11 n=41 v=120
900 On   ch=12 n=48 v=101
900 On   ch=14 n=57 v=97
914 Off  ch=12 n=48 v=101
915 Off  ch=14 n=57 v=97
918 Off  ch=11 n=41 v=120
928 Off  ch=3 n=60 v=100
930 On   ch=4 n=60 v=100
930 On   ch=12 n=52 v=110
930 On   ch=14 n=60 v=31
944 Off  ch=12 n=52 v=110
945 Off  ch=14 n=60 v=31
958 Off  ch=4 n=60 v=100
960 On   ch=1 n=48 v=91
960 On   ch=11 n=40 v=120
960 On   ch=12 n=52 v=110
960 On   ch=13 n=83 v=118
960 On   ch=14 n=60 v=31
962 Off  ch=13 n=84 v=109
974 Off  ch=12 n=52 v=110
975 Off  ch=14 n=60 v=31
988 Off  ch=1 n=48 v=91
989 On   ch=12 n=57 v=108
990 On   ch=14 n=62 v=57
992 Off  ch=11 n=40 v=120
1004 Off  ch=12 n=57 v=108
1005 Off  ch=14 n=62 v=57
1020 On   ch=3 n=60 v=100
1020 On   ch=12 n=45 v=112
1020 On   ch=14 n=56 v=90
1034 Off  ch=12 n=45 v=112
1034 Off  ch=14 n=56 v=90
1048 Off  ch=3 n=60 v=100
1049 On   ch=11 n=40 v=120
1050 On   ch=12 n=52 v=110
1050 On   ch=14 n=60 v=31
1064 Off  ch=12 n=52 v=110
1065 Off  ch=14 n=60 v=31
1073 Off  ch=11 n=40 v=120
1079 On   ch=1 n=48 v=91
1080 On   ch=2 n=60 v=100
1080 On   ch=12 n=57 v=108
1080 On   ch=14 n=62 v=57
1094 Off  ch=12 n=57 v=108
1095 Off  ch=14 n=62 v=57
1108 Off  ch=1 n=48 v=91
1108 Off  ch=2 n=60 v=100
1110 On   ch=12 n=45 v=112
1110 On   ch=14 n=56 v=90
1124 Off  ch=12 n=45 v=112
1125 Off  ch=14 n=56 v=90
1139 On   ch=3 n=60 v=100
1140 On   ch=11 n=40 v=116
1140 On   ch=12 n=52 v=110
1140 On   ch=14 n=60 v=31
1154 Off  ch=12 n=52 v=110
1154 Off  ch=14 n=60 v=31
1161 Off  ch=11 n=40 v=116
1168 Off  ch=3 n=60 v=100
1170 On   ch=12 n=57 v=108
1170 On   ch=14 n=62 v=57
1184 Off  ch=12 n=57 v=108
1185 Off  ch=14 n=62 v=57
1199 On   ch=1 n=48 v=91
1200 On   ch=11 n=40 v=118
1200 On   ch=12 n=45 v=112
1200 On   ch=14 n=56 v=90
1214 Off  ch=12 n=45 v=112
1215 Off  ch=14 n=56 v=90
1225 Off  ch=11 n=40 v=118
1228 Off  ch=1 n=48 v=91
1229 On   ch=12 n=52 v=110
1230 On   ch=14 n=60 v=31
1244 Off  ch=12 n=52 v=110
1245 Off  ch=14 n=60 v=31
1259 On   ch=3 n=60 v=100
1260 On   ch=12 n=57 v=108
1260 On   ch=14 n=62 v=57
1274 Off  ch=12 n=57 v=108
1275 Off  ch=14 n=62 v=57
1288 Off  ch=3 n=60 v=100
1289 On   ch=11 n=40 v=119
1290 On   ch=12 n=45 v=112
1290 On   ch=14 n=56 v=90
1304 Off  ch=12 n=45 v=112
1304 Off  ch=14 n=56 v=90
1314 Off  ch=11 n=40 v=119
1319 On   ch=1 n=48 v=91
1320 On   ch=2 n=60 v=100
1320 On   ch=12 n=52 v=110
1320 On   ch=14 n=60 v=31
1334 Off  ch=12 n=52 v=110
1334 Off  ch=14 n=60 v=31
1348 Off  ch=1 n=48 v=91
1348 Off  ch=2 n=60 v=100
1349 On   ch=12 n=57 v=108
1350 On   ch=14 n=62 v=57
1364 Off  ch=12 n=57 v=108
1364 Off  ch=14 n=62 v=57
1380 On   ch=3 n=60 v=100
1380 On   ch=11 n=40 v=117
1380 On   ch=12 n=45 v=112
1380 On   ch=14 n=56 v=90
1394 Off  ch=12 n=45 v=112
1395 Off  ch=14 n=56 v=90
1399 Off  ch=11 n=40 v=117
1408 Off  ch=3 n=60 v=100
1410 On   ch=4 n=60 v=100
1410 On   ch=12 n=52 v=110
1410 On   ch=14 n=60 v=31
1424 Off  ch=12 n=52 v=110
1425 Off  ch=14 n=60 v=31
1434 Off  ch=13 n=83 v=118
1438 Off  ch=4 n=60 v=100
1439 On   ch=1 n=48 v=91
1440 On   ch=11 n=40 v=117
1440 On   ch=12 n=57 v=108
1440 On   ch=13 n=81 v=114
1440 On   ch=14 n=62 v=57
1454 Off  ch=12 n=57 v=108
1455 Off  ch=14 n=62 v=57
1462 Off  ch=11 n=40 v=117
1468 Off  ch=1 n=48 v=91
1469 On   ch=12 n=45 v=112
1470 On   ch=14 n=56 v=90
1484 Off  ch=12 n=45 v=112
1484 Off  ch=14 n=56 v=90
1499 On   ch=3 n=60 v=100
1500 On   ch=12 n=52 v=110
1500 On   ch=14 n=60 v=31
1514 Off  ch=12 n=52 v=110
1514 Off  ch=14 n=60 v=31
1528 Off  ch=3 n=60 v=100
1529 On   ch=11 n=40 v=114
1530 On   ch=12 n=57 v=108
1530 On   ch=14 n=62 v=57
1544 Off  ch=12 n=57 v=108
1545 Off  ch=14 n=62 v=57
1553 Off  ch=11 n=40 v=114
1559 On   ch=1 n=48 v=91
1560 On   ch=2 n=60 v=100
1560 On   ch=12 n=45 v=112
1560 On   ch=14 n=56 v=90
1574 Off  ch=12 n=45 v=112
1575 Off  ch=14 n=56 v=90
1588 Off  ch=1 n=48 v=91
1588 Off  ch=2 n=60 v=100
1590 On   ch=12 n=52 v=110
1590 On   ch=14 n=60 v=31
1604 Off  ch=12 n=52 v=110
1605 Off  ch=14 n=60 v=31
1619 On   ch=3 n=60 v=100
1620 On   ch=11 n=40 v=116
1620 On   ch=12 n=57 v=108
1620 On   ch=14 n=62 v=57
1634 Off  ch=12 n=57 v=108
1635 Off  ch=14 n=62 v=57
1638 Off  ch=11 n=40 v=116
1648 Off  ch=3 n=60 v=100
1649 On   ch=12 n=45 v=112
1650 On   ch=14 n=56 v=90
1664 Off  ch=12 n=45 v=112
1665 Off  ch=14 n=56 v=90
1678 Off  ch=13 n=81 v=114
1679 On   ch=1 n=48 v=91
1680 On   ch=11 n=40 v=117
1680 On   ch=12 n=52 v=110
1680 On   ch=13 n=80 v=125
1680 On   ch=14 n=60 v=31
1694 Off  ch=12 n=52 v=110
1694 Off  ch=14 n=60 v=31
1698 Off  ch=11 n=40 v=117
1708 Off  ch=1 n=48 v=91
1709 On   ch=12 n=57 v=108
1710 On   ch=14 n=62 v=57
1724 Off  ch=12 n=57 v=108
1725 Off  ch=14 n=62 v=57
1739 On   ch=3 n=60 v=100
1740 On   ch=11 n=40 v=118
1740 On   ch=12 n=45 v=112
1740 On   ch=14 n=56 v=90
1754 Off  ch=12 n=45 v=112
1755 Off  ch=14 n=56 v=90
1756 Off  ch=11 n=40 v=118
1768 Off  ch=3 n=60 v=100
1769 On   ch=12 n=52 v=110
1769 On   ch=14 n=60 v=31
1784 Off  ch=12 n=52 v=110
1785 Off  ch=14 n=60 v=31
1799 On   ch=1 n=48 v=91
1799 On   ch=2 n=60 v=100
1800 On   ch=11 n=40 v=120
1800 On   ch=12 n=57 v=108
1800 On   ch=14 n=62 v=57
1814 Off  ch=12 n=57 v=108
1815 Off  ch=14 n=62 v=57
1816 Off  ch=11 n=40 v=120
1828 Off  ch=1 n=48 v=91
1828 Off  ch=2 n=60 v=100
1829 On   ch=12 n=45 v=112
1830 On   ch=14 n=56 v=90
1844 Off  ch=12 n=45 v=112
1845 Off  ch=14 n=56 v=90
1859 On   ch=3 n=60 v=100
1860 On   ch=11 n=40 v=120
1860 On   ch=12 n=52 v=110
1860 On   ch=14 n=60 v=31
1874 Off  ch=12 n=52 v=110
1874 Off  ch=14 n=60 v=31
1878 Off  ch=11 n=40 v=120
1888 Off  ch=3 n=60 v=100
1889 On   ch=4 n=60 v=100
1890 On   ch=12 n=57 v=108
1890 On   ch=14 n=62 v=57
1904 Off  ch=12 n=57 v=108
1904 Off  ch=14 n=62 v=57
1918 Off  ch=4 n=60 v=100
1919 On   ch=1 n=48 v=91
1920 On   ch=11 n=38 v=122
1920 On   ch=12 n=48 v=101
1920 On   ch=13 n=81 v=110
1920 On   ch=14 n=56 v=90
1927 Off  ch=13 n=80 v=125
1934 Off  ch=12 n=48 v=101
1935 Off  ch=14 n=56 v=90
1948 Off  ch=1 n=48 v=91
1949 On   ch=12 n=52 v=110
1950 On   ch=14 n=60 v=31
1953 Off  ch=11 n=38 v=122
1964 Off  ch=12 n=52 v=110
1965 Off  ch=14 n=60 v=31
1979 On   ch=3 n=60 v=100
1980 On   ch=12 n=57 v=108
1980 On   ch=14 n=62 v=57
1994 Off  ch=12 n=57 v=108
1995 Off  ch=14 n=62 v=57
2008 Off  ch=3 n=60 v=100
2009 On   ch=11 n=38 v=123
2009 On   ch=12 n=48 v=101
2010 On   ch=14 n=57 v=89
2024 Off  ch=12 n=48 v=101
2024 Off  ch=14 n=57 v=89
2034 Off  ch=11 n=38 v=123
2039 On   ch=1 n=48 v=91
2040 On   ch=2 n=60 v=100
2040 On   ch=12 n=52 v=110
2040 On   ch=14 n=60 v=31
2054 Off  ch=12 n=52 v=110
2054 Off  ch=14 n=60 v=31
2068 Off  ch=1 n=48 v=91
2068 Off  ch=2 n=60 v=100
2069 On   ch=12 n=57 v=108
2070 On   ch=14 n=62 v=57
2084 Off  ch=12 n=57 v=108
2084 Off  ch=14 n=62 v=57
2099 On   ch=3 n=60 v=100
2100 On   ch=11 n=38 v=119
2100 On   ch=12 n=48 v=101
2100 On   ch=14 n=57 v=89
2114 Off  ch=12 n=48 v=101
2114 Off  ch=14 n=57 v=89
2119 Off  ch=11 n=38 v=119
2128 Off  ch=3 n=60 v=100
2129 On   ch=12 n=52 v=110
2130 On   ch=14 n=60 v=31
2144 Off  ch=12 n=52 v=110
2144 Off  ch=14 n=60 v=31
2159 On   ch=1 n=48 v=91
2159 On   ch=11 n=38 v=122
2160 On   ch=12 n=57 v=108
2160 On   ch=14 n=62 v=57
2174 Off  ch=12 n=57 v=108
2174 Off  ch=14 n=62 v=57
2183 Off  ch=11 n=38 v=122
2188 Off  ch=1 n=48 v=91
2189 On   ch=12 n=48 v=101
2190 On   ch=14 n=57 v=89
2204 Off  ch=12 n=48 v=101
2205 Off  ch=14 n=57 v=89
2219 On   ch=3 n=60 v=100
2220 On   ch=12 n=52 v=110
2220 On   ch=14 n=60 v=31
2234 Off  ch=12 n=52 v=110
2234 Off  ch=14 n=60 v=31
2248 Off  ch=3 n=60 v=100
2249 On   ch=11 n=38 v=123
2250 On   ch=12 n=57 v=108
2250 On   ch=14 n=62 v=57
2264 Off  ch=12 n=57 v=108
2264 Off  ch=14 n=62 v=57
2269 Off  ch=11 n=38 v=123
2279 On   ch=1 n=48 v=91
2279 On   ch=2 n=60 v=100
2280 On   ch=12 n=48 v=101
2280 On   ch=14 n=57 v=89
2294 Off  ch=12 n=48 v=101
2294 Off  ch=14 n=57 v=89
2308 Off  ch=1 n=48 v=91
2308 Off  ch=2 n=60 v=100
2309 On   ch=12 n=52 v=110
2309 On   ch=14 n=60 v=31
2324 Off  ch=12 n=52 v=110
2324 Off  ch=14 n=60 v=31
2339 On   ch=3 n=60 v=100
2340 On   ch=11 n=38 v=122
2340 On   ch=12 n=57 v=108
2340 On   ch=14 n=62 v=57
2354 Off  ch=12 n=57 v=108
2355 Off  ch=14 n=62 v=57
2358 Off  ch=11 n=38 v=122
2368 Off  ch=3 n=60 v=100
2369 On   ch=4 n=60 v=100
2369 On   ch=12 n=48 v=101
2370 On   ch=14 n=57 v=89
2384 Off  ch=12 n=48 v=101
2384 Off  ch=14 n=57 v=89
2398 Off  ch=4 n=60 v=100
2399 On   ch=1 n=48 v=91
2400 On   ch=11 n=38 v=124
2400 On   ch=12 n=52 v=110
2400 On   ch=13 n=84 v=121
2400 On   ch=14 n=60 v=31
2404 Off  ch=13 n=81 v=110
2414 Off  ch=12 n=52 v=110
2414 Off  ch=14 n=60 v=31
2418 Off  ch=11 n=38 v=124
2428 Off  ch=1 n=48 v=91
2429 On   ch=12 n=57 v=108
2430 On   ch=14 n=62 v=57
2444 Off  ch=12 n=57 v=108
2444 Off  ch=14 n=62 v=57
2459 On   ch=3 n=60 v=100
2460 On   ch=12 n=48 v=101
2460 On   ch=14 n=57 v=89
2474 Off  ch=12 n=48 v=101
2474 Off  ch=14 n=57 v=89
2488 Off  ch=3 n=60 v=100
2489 On   ch=11 n=38 v=124
2489 On   ch=12 n=52 v=110
2490 On   ch=14 n=60 v=31
2504 Off  ch=12 n=52 v=110
2504 Off  ch=14 n=60 v=31
2510 Off  ch=11 n=38 v=124
2519 On   ch=1 n=48 v=91
2520 On   ch=2 n=60 v=100
2520 On   ch=12 n=57 v=108
2520 On   ch=14 n=62 v=57
2534 Off  ch=12 n=57 v=108
2534 Off  ch=14 n=62 v=57
2548 Off  ch=1 n=48 v=91
2548 Off  ch=2 n=60 v=100
2549 On   ch=12 n=48 v=101
2549 On   ch=14 n=57 v=89
2564 Off  ch=12 n=48 v=101
2564 Off  ch=14 n=57 v=89
2579 On   ch=3 n=60 v=100
2580 On   ch=11 n=38 v=123
2580 On   ch=12 n=52 v=110
2580 On   ch=14 n=60 v=31
2594 Off  ch=12 n=52 v=110
2594 Off  ch=14 n=60 v=31
2597 Off  ch=11 n=38 v=123
2608 Off  ch=3 n=60 v=100
2609 On   ch=12 n=57 v=108
2610 On   ch=14 n=62 v=57
2624 Off  ch=12 n=57 v=108
2624 Off  ch=14 n=62 v=57
2639 On   ch=1 n=48 v=91
2639 On   ch=11 n=38 v=120
2640 On   ch=12 n=48 v=101
2640 On   ch=14 n=57 v=89
2654 Off  ch=12 n=48 v=101
2654 Off  ch=14 n=57 v=89
2657 Off  ch=11 n=38 v=120
2668 Off  ch=1 n=48 v=91
2669 On   ch=12 n=52 v=110
2669 On   ch=14 n=60 v=31
2684 Off  ch=12 n=52 v=110
2684 Off  ch=14 n=60 v=31
2699 On   ch=3 n=60 v=100
2700 On   ch=11 n=38 v=120
2700 On   ch=12 n=57 v=108
2700 On   ch=14 n=62 v=57
2714 Off  ch=12 n=57 v=108
2714 Off  ch=14 n=62 v=57
2716 Off  ch=11 n=38 v=120
2728 Off  ch=3 n=60 v=100
2729 On   ch=12 n=48 v=101
2729 On   ch=14 n=57 v=89
2744 Off  ch=12 n=48 v=101
2744 Off  ch=14 n=57 v=89
2759 On   ch=1 n=48 v=91
2760 On   ch=2 n=60 v=100
2760 On   ch=11 n=38 v=121
2760 On   ch=12 n=52 v=110
2760 On   ch=14 n=60 v=31
2774 Off  ch=12 n=52 v=110
2774 Off  ch=14 n=60 v=31
2775 Off  ch=11 n=38 v=121
2788 Off  ch=1 n=48 v=91
2788 Off  ch=2 n=60 v=100
2789 On   ch=12 n=57 v=108
2789 On   ch=14 n=62 v=57
2804 Off  ch=12 n=57 v=108
2804 Off  ch=14 n=62 v=57
2819 On   ch=3 n=60 v=100
2819 On   ch=11 n=38 v=121
2820 On   ch=12 n=48 v=101
2820 On   ch=14 n=57 v=89
2834 Off  ch=12 n=48 v=101
2834 Off  ch=14 n=57 v=89
2835 Off  ch=11 n=38 v=121
2848 Off  ch=3 n=60 v=100
2849 On   ch=4 n=60 v=100
2850 On   ch=12 n=52 v=110
2850 On   ch=14 n=60 v=31
2864 Off  ch=12 n=52 v=110
2864 Off  ch=14 n=60 v=31
2865 Off  ch=13 n=84 v=121
2878 Off  ch=4 n=60 v=100
2879 On   ch=1 n=48 v=91
2880 On   ch=11 n=40 v=116
2880 On   ch=12 n=52 v=110
2880 On   ch=13 n=83 v=105
2880 On   ch=14 n=60 v=31
2894 Off  ch=12 n=52 v=110
2894 Off  ch=14 n=60 v=31
2908 Off  ch=1 n=48 v=91
2909 On   ch=12 n=57 v=108
2909 On   ch=14 n=64 v=109
2912 Off  ch=11 n=40 v=116
2924 Off  ch=12 n=57 v=108
2924 Off  ch=14 n=64 v=109
2939 On   ch=3 n=60 v=100
2939 On   ch=12 n=45 v=112
2940 On   ch=14 n=57 v=89
2954 Off  ch=12 n=45 v=112
2954 Off  ch=14 n=57 v=89
2968 Off  ch=3 n=60 v=100
2969 On   ch=12 n=52 v=110
2969 On   ch=14 n=60 v=31
2984 Off  ch=12 n=52 v=110
2984 Off  ch=14 n=60 v=31
2999 On   ch=1 n=48 v=91
2999 On   ch=2 n=60 v=100
3000 On   ch=11 n=40 v=121
3000 On   ch=12 n=57 v=108
3000 On   ch=14 n=64 v=109
3014 Off  ch=12 n=57 v=108
3014 Off  ch=14 n=64 v=109
3024 Off  ch=11 n=40 v=121
3028 Off  ch=1 n=48 v=91
3028 Off  ch=2 n=60 v=100
3029 On   ch=12 n=45 v=112
3029 On   ch=14 n=57 v=89
3044 Off  ch=12 n=45 v=112
3044 Off  ch=14 n=57 v=89
3059 On   ch=3 n=60 v=100
3059 On   ch=11 n=40 v=120
3060 On   ch=12 n=52 v=110
3060 On   ch=14 n=60 v=31
3074 Off  ch=12 n=52 v=110
3074 Off  ch=14 n=60 v=31
3080 Off  ch=11 n=40 v=120
3088 Off  ch=3 n=60 v=100
3089 On   ch=12 n=57 v=108
3090 On   ch=14 n=64 v=109
3104 Off  ch=12 n=57 v=108
3104 Off  ch=14 n=64 v=109
3119 On   ch=1 n=48 v=91
3120 On   ch=11 n=40 v=119
3120 On   ch=12 n=45 v=112
3120 On   ch=14 n=57 v=89
3134 Off  ch=12 n=45 v=112
3134 Off  ch=14 n=57 v=89
3148 Off  ch=1 n=48 v=91
3149 On   ch=12 n=52 v=110
3149 On   ch=14 n=60 v=31
3150 Off  ch=11 n=40 v=119
3164 Off  ch=12 n=52 v=110
3164 Off  ch=14 n=60 v=31
3179 On   ch=3 n=60 v=100
3180 On   ch=12 n=57 v=108
3180 On   ch=14 n=64 v=109
3194 Off  ch=12 n=57 v=108
3194 Off  ch=14 n=64 v=109
3208 Off  ch=3 n=60 v=100
3209 On   ch=11 n=40 v=119
3209 On   ch=12 n=45 v=112
3210 On   ch=14 n=57 v=89
3224 Off  ch=12 n=45 v=112
3224 Off  ch=14 n=57 v=89
3235 Off  ch=11 n=40 v=119
3239 On   ch=1 n=48 v=91
3239 On   ch=2 n=60 v=100
3240 On   ch=12 n=52 v=110
3240 On   ch=14 n=60 v=31
3254 Off  ch=12 n=52 v=110
3254 Off  ch=14 n=60 v=31
3268 Off  ch=1 n=48 v=91
3268 Off  ch=2 n=60 v=100
3269 On   ch=12 n=57 v=108
3269 On   ch=14 n=64 v=109
3284 Off  ch=12 n=57 v=108
3284 Off  ch=14 n=64 v=109
3299 On   ch=3 n=60 v=100
3299 On   ch=11 n=40 v=106
3300 On   ch=12 n=45 v=112
3300 On   ch=14 n=57 v=89
3314 Off  ch=12 n=45 v=112
3314 Off  ch=14 n=57 v=89
3324 Off  ch=11 n=40 v=106
3328 Off  ch=3 n=60 v=100
3329 On   ch=4 n=60 v=100
3329 On   ch=12 n=52 v=110
3330 On   ch=14 n=60 v=31
3344 Off  ch=12 n=52 v=110
3344 Off  ch=14 n=60 v=31
3358 Off  ch=4 n=60 v=100
3359 On   ch=1 n=48 v=91
3359 On   ch=11 n=40 v=118
3360 On   ch=12 n=57 v=108
3360 On   ch=14 n=60 v=31
3374 Off  ch=12 n=57 v=108
3374 Off  ch=14 n=60 v=31
3388 Off  ch=1 n=48 v=91
3389 On   ch=12 n=45 v=112
3389 On   ch=14 n=65 v=104
3390 Off  ch=11 n=40 v=118
3404 Off  ch=12 n=45 v=112
3404 Off  ch=14 n=65 v=104
3419 On   ch=3 n=60 v=100
3419 On   ch=12 n=52 v=110
3420 On   ch=14 n=57 v=89
3434 Off  ch=12 n=52 v=110
3434 Off  ch=14 n=57 v=89
3448 Off  ch=3 n=60 v=100
3449 On   ch=11 n=40 v=117
3449 On   ch=12 n=57 v=108
3450 On   ch=14 n=60 v=31
3464 Off  ch=12 n=57 v=108
3464 Off  ch=14 n=60 v=31
3477 Off  ch=11 n=40 v=117
3479 On   ch=1 n=48 v=91
3479 On   ch=2 n=60 v=100
3480 On   ch=12 n=45 v=112
3480 On   ch=14 n=65 v=104
3494 Off  ch=12 n=45 v=112
3494 Off  ch=14 n=65 v=104
3508 Off  ch=1 n=48 v=91
3508 Off  ch=2 n=60 v=100
3509 On   ch=12 n=52 v=110
3509 On   ch=14 n=57 v=89
3524 Off  ch=12 n=52 v=110
3524 Off  ch=14 n=57 v=89
3539 On   ch=3 n=60 v=100
3539 On   ch=11 n=40 v=121
3540 On   ch=12 n=57 v=108
3540 On   ch=14 n=60 v=31
3554 Off  ch=12 n=57 v=108
3554 Off  ch=14 n=60 v=31
3560 Off  ch=11 n=40 v=121
3568 Off  ch=3 n=60 v=100
3569 On   ch=12 n=45 v=112
3569 On   ch=14 n=65 v=104
3584 Off  ch=12 n=45 v=112
3584 Off  ch=14 n=65 v=104
3599 On   ch=1 n=48 v=91
3599 On   ch=11 n=40 v=117
3600 On   ch=12 n=52 v=110
3600 On   ch=13 n=84 v=106
3600 On   ch=14 n=57 v=89
3609 Off  ch=13 n=83 v=105
3614 Off  ch=12 n=52 v=110
3614 Off  ch=14 n=57 v=89
3628 Off  ch=1 n=48 v=91
3629 On   ch=12 n=57 v=108
3629 On   ch=14 n=60 v=31
3630 Off  ch=11 n=40 v=117
3644 Off  ch=12 n=57 v=108
3644 Off  ch=14 n=60 v=31
3659 On   ch=3 n=60 v=100
3659 On   ch=11 n=43 v=104
3660 On   ch=12 n=45 v=112
3660 On   ch=14 n=64 v=97
3674 Off  ch=12 n=45 v=112
3674 Off  ch=14 n=64 v=97
3688 Off  ch=3 n=60 v=100
3689 On   ch=12 n=52 v=110
3689 On   ch=14 n=64 v=97
3700 Off  ch=11 n=43 v=104
3704 Off  ch=12 n=52 v=110
3704 Off  ch=14 n=64 v=97
3717 Off  ch=13 n=84 v=106
3719 On   ch=1 n=48 v=91
3719 On   ch=2 n=60 v=100
3720 On   ch=11 n=40 v=114
3720 On   ch=12 n=57 v=108
3720 On   ch=13 n=83 v=110
3720 On   ch=14 n=57 v=89
3734 Off  ch=12 n=57 v=108
3734 Off  ch=14 n=57 v=89
3748 Off  ch=1 n=48 v=91
3748 Off  ch=2 n=60 v=100
3748 Off  ch=11 n=40 v=114
3749 On   ch=12 n=45 v=112
3749 On   ch=14 n=60 v=31
3764 Off  ch=12 n=45 v=112
3764 Off  ch=14 n=60 v=31
3779 On   ch=3 n=60 v=100
3779 On   ch=11 n=43 v=112
3780 On   ch=12 n=52 v=110
3780 On   ch=14 n=64 v=97
3794 Off  ch=12 n=52 v=110
3794 Off  ch=14 n=64 v=97
3808 Off  ch=3 n=60 v=100
3809 On   ch=4 n=60 v=100
3809 On   ch=12 n=57 v=108
3810 On   ch=14 n=57 v=89
3824 Off  ch=12 n=57 v=108
3824 Off  ch=14 n=57 v=89
3829 Off  ch=11 n=43 v=112
3838 Off  ch=4 n=60 v=100
3839 On   ch=1 n=48 v=91
3839 On   ch=11 n=41 v=123
3840 On   ch=12 n=48 v=101
3840 On   ch=13 n=81 v=125
3840 On   ch=14 n=57 v=97
3840 Off  ch=13 n=83 v=110
3854 Off  ch=12 n=48 v=101
3854 Off  ch=14 n=57 v=97
3868 Off  ch=1 n=48 v=91
3869 On   ch=12 n=52 v=110
3869 On   ch=14 n=64 v=97
3879 Off  ch=11 n=41 v=123
3884 Off  ch=12 n=52 v=110
3884 Off  ch=14 n=64 v=97
3899 On   ch=3 n=60 v=100
3899 On   ch=12 n=57 v=108
3900 On   ch=14 n=57 v=89
3914 Off  ch=12 n=57 v=108
3914 Off  ch=14 n=57 v=89
3928 Off  ch=3 n=60 v=100
3929 On   ch=11 n=41 v=122
3929 On   ch=12 n=48 v=101
3930 On   ch=14 n=64 v=97
3944 Off  ch=12 n=48 v=101
3944 Off  ch=14 n=64 v=97
3959 On   ch=1 n=48 v=91
3959 On   ch=2 n=60 v=100
3960 On   ch=12 n=52 v=110
3960 On   ch=14 n=57 v=89
3962 Off  ch=11 n=41 v=122
3974 Off  ch=12 n=52 v=110
3974 Off  ch=14 n=57 v=89
3988 Off  ch=1 n=48 v=91
3988 Off  ch=2 n=60 v=100
3989 On   ch=12 n=57 v=108
3989 On   ch=14 n=64 v=97
4004 Off  ch=12 n=57 v=108
4004 Off  ch=14 n=64 v=97
4019 On   ch=3 n=60 v=100
4019 On   ch=11 n=41 v=116
4020 On   ch=12 n=48 v=101
4020 On   ch=14 n=57 v=89
4034 Off  ch=12 n=48 v=101
4034 Off  ch=14 n=57 v=89
4043 Off  ch=11 n=41 v=116
4048 Off  ch=3 n=60 v=100
4049 On   ch=12 n=52 v=110
4049 On   ch=14 n=64 v=97
4064 Off  ch=12 n=52 v=110
4064 Off  ch=14 n=64 v=97
4079 On   ch=1 n=48 v=91
4079 On   ch=11 n=41 v=121
4080 On   ch=12 n=57 v=108
4080 On   ch=14 n=57 v=89
4094 Off  ch=12 n=57 v=108
4094 Off  ch=14 n=57 v=89
4108 Off  ch=1 n=48 v=91
4109 On   ch=12 n=48 v=101
4109 On   ch=14 n=64 v=97
4123 Off  ch=11 n=41 v=121
4124 Off  ch=12 n=48 v=101
4124 Off  ch=14 n=64 v=97
4139 On   ch=3 n=60 v=100
4139 On   ch=12 n=52 v=110
4140 On   ch=14 n=57 v=89
4154 Off  ch=12 n=52 v=110
4154 Off  ch=14 n=57 v=89
4168 Off  ch=3 n=60 v=100
4169 On   ch=11 n=41 v=117
4169 On   ch=12 n=57 v=108
4170 On   ch=14 n=64 v=97
4184 Off  ch=12 n=57 v=108
4184 Off  ch=14 n=64 v=97
4199 On   ch=1 n=48 v=91
4199 On   ch=2 n=60 v=100
4200 On   ch=12 n=48 v=101
4200 On   ch=14 n=57 v=89
4200 Off  ch=11 n=41 v=117
4214 Off  ch=12 n=48 v=101
4214 Off  ch=14 n=57 v=89
4228 Off  ch=1 n=48 v=91
4228 Off  ch=2 n=60 v=100
4229 On   ch=12 n=52 v=110
4229 On   ch=14 n=64 v=97
4244 Off  ch=12 n=52 v=110
4244 Off  ch=14 n=64 v=97
4259 On   ch=3 n=60 v=100
4259 On   ch=11 n=41 v=117
4259 On   ch=12 n=57 v=108
4260 On   ch=14 n=57 v=89
4274 Off  ch=12 n=57 v=108
4274 Off  ch=14 n=57 v=89
4285 Off  ch=11 n=41 v=117
4288 Off  ch=3 n=60 v=100
4289 On   ch=4 n=60 v=100
4289 On   ch=12 n=48 v=101
4290 On   ch=14 n=64 v=97
4304 Off  ch=12 n=48 v=101
4304 Off  ch=14 n=64 v=97
4309 Off  ch=13 n=81 v=125
4318 Off  ch=4 n=60 v=100
4319 On   ch=1 n=48 v=91
4319 On   ch=11 n=41 v=117
4319 On   ch=12 n=52 v=110
4320 On   ch=13 n=83 v=118
4320 On   ch=14 n=57 v=89
4334 Off  ch=12 n=52 v=110
4334 Off  ch=14 n=57 v=89
4348 Off  ch=1 n=48 v=91
4349 On   ch=12 n=57 v=108
4349 On   ch=14 n=64 v=97
4354 Off  ch=11 n=41 v=117
4364 Off  ch=12 n=57 v=108
4364 Off  ch=14 n=64 v=97
4379 On   ch=3 n=60 v=100
4379 On   ch=12 n=48 v=101
4380 On   ch=14 n=57 v=89
4394 Off  ch=12 n=48 v=101
4394 Off  ch=14 n=57 v=89
4408 Off  ch=3 n=60 v=100
4409 On   ch=11 n=41 v=119
4409 On   ch=12 n=52 v=110
4410 On   ch=14 n=64 v=97
4424 Off  ch=12 n=52 v=110
4424 Off  ch=14 n=64 v=97
4439 On   ch=1 n=48 v=91
4439 On   ch=2 n=60 v=100
4440 Off  ch=11 n=41 v=119
4440 On   ch=12 n=57 v=108
4440 On   ch=14 n=57 v=89
4454 Off  ch=12 n=57 v=108
4454 Off  ch=14 n=57 v=89
4468 Off  ch=1 n=48 v=91
4468 Off  ch=2 n=60 v=100
4469 On   ch=12 n=48 v=101
4469 On   ch=14 n=64 v=97
4484 Off  ch=12 n=48 v=101
4484 Off  ch=14 n=64 v=97
4499 On   ch=3 n=60 v=100
4499 On   ch=11 n=41 v=119
4500 On   ch=12 n=52 v=110
4500 On   ch=14 n=57 v=89
4514 Off  ch=12 n=52 v=110
4514 Off  ch=14 n=57 v=89
4525 Off  ch=11 n=41 v=119
4528 Off  ch=3 n=60 v=100
4529 On   ch=12 n=57 v=108
4529 On   ch=14 n=64 v=97
4544 Off  ch=12 n=57 v=108
4544 Off  ch=14 n=64 v=97
4559 On   ch=1 n=48 v=91
4559 On   ch=11 n=41 v=118
4559 On   ch=12 n=48 v=101
4560 On   ch=13 n=84 v=109
4560 On   ch=14 n=57 v=89
4563 Off  ch=13 n=83 v=118
4574 Off  ch=12 n=48 v=101
4574 Off  ch=14 n=57 v=89
4580 Off  ch=11 n=41 v=118
4588 Off  ch=1 n=48 v=91
4589 On   ch=12 n=52 v=110
4589 On   ch=14 n=64 v=97
4604 Off  ch=12 n=52 v=110
4604 Off  ch=14 n=64 v=97
4619 On   ch=3 n=60 v=100
4619 On   ch=11 n=41 v=115
4620 On   ch=12 n=57 v=108
4620 On   ch=14 n=57 v=89
4634 Off  ch=12 n=57 v=108
4634 Off  ch=14 n=57 v=89
4639 Off  ch=11 n=41 v=115
4648 Off  ch=3 n=60 v=100
4649 On   ch=12 n=48 v=101
4649 On   ch=14 n=64 v=97
4664 Off  ch=12 n=48 v=101
4664 Off  ch=14 n=64 v=97
4679 On   ch=1 n=48 v=91
4679 On   ch=2 n=60 v=100
4680 On   ch=11 n=41 v=118
4680 On   ch=12 n=52 v=110
4680 On   ch=14 n=57 v=89
4694 Off  ch=12 n=52 v=110
4694 Off  ch=14 n=57 v=89
4699 Off  ch=11 n=41 v=118
4708 Off  ch=1 n=48 v=91
4708 Off  ch=2 n=60 v=100
4709 On   ch=12 n=57 v=108
4709 On   ch=14 n=64 v=97
4724 Off  ch=12 n=57 v=108
4724 Off  ch=14 n=64 v=97
4739 On   ch=3 n=60 v=100
4739 On   ch=11 n=41 v=120
4739 On   ch=12 n=48 v=101
4740 On   ch=14 n=57 v=89
4754 Off  ch=12 n=48 v=101
4754 Off  ch=14 n=57 v=89
4758 Off  ch=11 n=41 v=120
4768 Off  ch=3 n=60 v=100
4769 On   ch=4 n=60 v=100
4769 On   ch=12 n=52 v=110
4769 On   ch=14 n=57 v=89
4784 Off  ch=12 n=52 v=110
4784 Off  ch=14 n=57 v=89
4798 Off  ch=4 n=60 v=100
4799 On   ch=1 n=48 v=91
4799 On   ch=11 n=40 v=120
4800 On   ch=12 n=52 v=110
4800 On   ch=13 n=83 v=118
4800 On   ch=14 n=56 v=90
4801 Off  ch=13 n=84 v=109
4814 Off  ch=12 n=52 v=110
4814 Off  ch=14 n=56 v=90
4828 Off  ch=1 n=48 v=91
4829 On   ch=12 n=57 v=108
4829 On   ch=14 n=62 v=57
4831 Off  ch=11 n=40 v=120
4844 Off  ch=12 n=57 v=108
4844 Off  ch=14 n=62 v=57
4859 On   ch=3 n=60 v=100
4859 On   ch=12 n=45 v=112
4859 On   ch=14 n=56 v=90
4874 Off  ch=12 n=45 v=112
4874 Off  ch=14 n=56 v=90
4888 Off  ch=3 n=60 v=100
4889 On   ch=11 n=40 v=120
4889 On   ch=12 n=52 v=110
4890 On   ch=14 n=62 v=57
4904 Off  ch=12 n=52 v=110
4904 Off  ch=14 n=62 v=57
4913 Off  ch=11 n=40 v=120
4919 On   ch=1 n=48 v=91
4919 On   ch=2 n=60 v=100
4920 On   ch=12 n=57 v=108
4920 On   ch=14 n=56 v=90
4934 Off  ch=12 n=57 v=108
4934 Off  ch=14 n=56 v=90
4948 Off  ch=1 n=48 v=91
4948 Off  ch=2 n=60 v=100
4949 On   ch=12 n=45 v=112
4949 On   ch=14 n=62 v=57
4964 Off  ch=12 n=45 v=112
4964 Off  ch=14 n=62 v=57
4979 On   ch=3 n=60 v=100
4979 On   ch=11 n=40 v=116
4979 On   ch=12 n=52 v=110
4980 On   ch=14 n=56 v=90
4994 Off  ch=12 n=52 v=110
4994 Off  ch=14 n=56 v=90
5000 Off  ch=11 n=40 v=116
5008 Off  ch=3 n=60 v=100
5009 On   ch=12 n=57 v=108
5009 On   ch=14 n=62 v=57
5024 Off  ch=12 n=57 v=108
5024 Off  ch=14 n=62 v=57
5039 On   ch=1 n=48 v=91
5039 On   ch=11 n=40 v=118
5040 On   ch=12 n=45 v=112
5040 On   ch=14 n=56 v=90
5054 Off  ch=12 n=45 v=112
5054 Off  ch=14 n=56 v=90
5065 Off  ch=11 n=40 v=118
5068 Off  ch=1 n=48 v=91
5069 On   ch=12 n=52 v=110
5069 On   ch=14 n=62 v=57
5084 Off  ch=12 n=52 v=110
5084 Off  ch=14 n=62 v=57
5099 On   ch=3 n=60 v=100
5099 On   ch=12 n=57 v=108
5100 On   ch=14 n=56 v=90
5114 Off  ch=12 n=57 v=108
5114 Off  ch=14 n=56 v=90
5128 Off  ch=3 n=60 v=100
5129 On   ch=11 n=40 v=119
5129 On   ch=12 n=45 v=112
5129 On   ch=14 n=62 v=57
5144 Off  ch=12 n=45 v=112
5144 Off  ch=14 n=62 v=57
5154 Off  ch=11 n=40 v=119
5159 On   ch=1 n=48 v=91
5159 On   ch=2 n=60 v=100
5159 On   ch=12 n=52 v=110
5160 On   ch=14 n=56 v=90
5174 Off  ch=12 n=52 v=110
5174 Off  ch=14 n=56 v=90
5188 Off  ch=1 n=48 v=91
5188 Off  ch=2 n=60 v=100
5189 On   ch=12 n=57 v=108
5189 On   ch=14 n=62 v=57
5204 Off  ch=12 n=57 v=108
5204 Off  ch=14 n=62 v=57
5219 On   ch=3 n=60 v=100
5219 On   ch=11 n=40 v=117
5220 On   ch=12 n=45 v=112
5220 On   ch=14 n=56 v=90
5234 Off  ch=12 n=45 v=112
5234 Off  ch=14 n=56 v=90
5239 Off  ch=11 n=40 v=117
5248 Off  ch=3 n=60 v=100
5249 On   ch=4 n=60 v=100
5249 On   ch=12 n=52 v=110
5249 On   ch=14 n=62 v=57
5264 Off  ch=12 n=52 v=110
5264 Off  ch=14 n=62 v=57
5274 Off  ch=13 n=83 v=118
5278 Off  ch=4 n=60 v=100
5279 On   ch=1 n=48 v=91
5279 On   ch=11 n=40 v=117
5279 On   ch=12 n=57 v=108
5280 On   ch=13 n=81 v=114
5280 On   ch=14 n=56 v=90
5294 Off  ch=12 n=57 v=108
5294 Off  ch=14 n=56 v=90
5301 Off  ch=11 n=40 v=117
5308 Off  ch=1 n=48 v=91
5309 On   ch=12 n=45 v=112
5309 On   ch=14 n=62 v=57
5324 Off  ch=12 n=45 v=112
5324 Off  ch=14 n=62 v=57
5339 On   ch=3 n=60 v=100
5339 On   ch=12 n=52 v=110
5340 On   ch=14 n=56 v=90
5354 Off  ch=12 n=52 v=110
5354 Off  ch=14 n=56 v=90
5368 Off  ch=3 n=60 v=100
5369 On   ch=11 n=40 v=114
5369 On   ch=12 n=57 v=108
5370 On   ch=14 n=62 v=57
5384 Off  ch=12 n=57 v=108
5384 Off  ch=14 n=62 v=57
5393 Off  ch=11 n=40 v=114
5399 On   ch=1 n=48 v=91
5399 On   ch=2 n=60 v=100
5399 On   ch=12 n=45 v=112
5400 On   ch=14 n=56 v=90
5414 Off  ch=12 n=45 v=112
5414 Off  ch=14 n=56 v=90
5428 Off  ch=1 n=48 v=91
5428 Off  ch=2 n=60 v=100
5429 On   ch=12 n=52 v=110
5429 On   ch=14 n=62 v=57
5444 Off  ch=12 n=52 v=110
5444 Off  ch=14 n=62 v=57
5459 On   ch=3 n=60 v=100
5459 On   ch=11 n=40 v=116
5459 On   ch=12 n=57 v=108
5460 On   ch=14 n=56 v=90
5474 Off  ch=12 n=57 v=108
5474 Off  ch=14 n=56 v=90
5478 Off  ch=11 n=40 v=116
5488 Off  ch=3 n=60 v=100
5489 On   ch=12 n=45 v=112
5489 On   ch=14 n=62 v=57
5504 Off  ch=12 n=45 v=112
5504 Off  ch=14 n=62 v=57
5518 Off  ch=13 n=81 v=114
5519 On   ch=1 n=48 v=91
5519 On   ch=11 n=40 v=117
5519 On   ch=12 n=52 v=110
5520 On   ch=13 n=80 v=125
5520 On   ch=14 n=56 v=90
5534 Off  ch=12 n=52 v=110
5534 Off  ch=14 n=56 v=90
5538 Off  ch=11 n=40 v=117
5548 Off  ch=1 n=48 v=91
5549 On   ch=12 n=57 v=108
5549 On   ch=14 n=62 v=57
5564 Off  ch=12 n=57 v=108
5564 Off  ch=14 n=62 v=57
5579 On   ch=3 n=60 v=100
5579 On   ch=11 n=40 v=118
5579 On   ch=12 n=45 v=112
5580 On   ch=14 n=56 v=90
5594 Off  ch=12 n=45 v=112
5594 Off  ch=14 n=56 v=90
5595 Off  ch=11 n=40 v=118
5608 Off  ch=3 n=60 v=100
5609 On   ch=12 n=52 v=110
5609 On   ch=14 n=62 v=57
5624 Off  ch=12 n=52 v=110
5624 Off  ch=14 n=62 v=57
5639 On   ch=1 n=48 v=91
5639 On   ch=2 n=60 v=100
5639 On   ch=11 n=40 v=120
5640 On   ch=12 n=57 v=108
5640 On   ch=14 n=56 v=90
5654 Off  ch=12 n=57 v=108
5654 Off  ch=14 n=56 v=90
5655 Off  ch=11 n=40 v=120
5668 Off  ch=1 n=48 v=91
5668 Off  ch=2 n=60 v=100
5669 On   ch=12 n=45 v=112
5669 On   ch=14 n=62 v=57
5684 Off  ch=12 n=45 v=112
5684 Off  ch=14 n=62 v=57
5699 On   ch=3 n=60 v=100
5699 On   ch=11 n=40 v=120
5699 On   ch=12 n=52 v=110
5700 On   ch=14 n=56 v=90
5714 Off  ch=12 n=52 v=110
5714 Off  ch=14 n=56 v=90
5718 Off  ch=11 n=40 v=120
5728 Off  ch=3 n=60 v=100
5729 On   ch=4 n=60 v=100
5729 On   ch=12 n=57 v=108
5729 On   ch=14 n=62 v=57
5744 Off  ch=12 n=57 v=108
5744 Off  ch=14 n=62 v=57
5758 Off  ch=4 n=60 v=100
5759 On   ch=1 n=48 v=91
5759 On   ch=11 n=38 v=122
5759 On   ch=12 n=48 v=101
5760 On   ch=13 n=81 v=110
5760 On   ch=14 n=56 v=90
5766 Off  ch=13 n=80 v=125
5774 Off  ch=12 n=48 v=101
5774 Off  ch=14 n=56 v=90
5788 Off  ch=1 n=48 v=91
5789 On   ch=12 n=52 v=110
5789 On   ch=14 n=62 v=57
5793 Off  ch=11 n=38 v=122
5804 Off  ch=12 n=52 v=110
5804 Off  ch=14 n=62 v=57
5819 On   ch=3 n=60 v=100
5819 On   ch=12 n=57 v=108
5819 On   ch=14 n=57 v=89
5834 Off  ch=12 n=57 v=108
5834 Off  ch=14 n=57 v=89
5848 Off  ch=3 n=60 v=100
5849 On   ch=11 n=38 v=123
5849 On   ch=12 n=48 v=101
5849 On   ch=14 n=62 v=57
5864 Off  ch=12 n=48 v=101
5864 Off  ch=14 n=62 v=57
5874 Off  ch=11 n=38 v=123
5879 On   ch=1 n=48 v=91
5879 On   ch=2 n=60 v=100
5879 On   ch=12 n=52 v=110
5880 On   ch=14 n=57 v=89
5894 Off  ch=12 n=52 v=110
5894 Off  ch=14 n=57 v=89
5908 Off  ch=1 n=48 v=91
5908 Off  ch=2 n=60 v=100
5909 On   ch=12 n=57 v=108
5909 On   ch=14 n=62 v=57
5924 Off  ch=12 n=57 v=108
5924 Off  ch=14 n=62 v=57
5939 On   ch=3 n=60 v=100
5939 On   ch=11 n=38 v=119
5939 On   ch=12 n=48 v=101
5940 On   ch=14 n=57 v=89
5954 Off  ch=12 n=48 v=101
5954 Off  ch=14 n=57 v=89
5959 Off  ch=11 n=38 v=119
5968 Off  ch=3 n=60 v=100
5969 On   ch=12 n=52 v=110
5969 On   ch=14 n=62 v=57
5984 Off  ch=12 n=52 v=110
5984 Off  ch=14 n=62 v=57
5999 On   ch=1 n=48 v=91
5999 On   ch=11 n=38 v=122
5999 On   ch=12 n=57 v=108
5999 On   ch=14 n=57 v=89
6014 Off  ch=12 n=57 v=108
6014 Off  ch=14 n=57 v=89
6023 Off  ch=11 n=38 v=122
6028 Off  ch=1 n=48 v=91
6029 On   ch=12 n=48 v=101
6029 On   ch=14 n=62 v=57
6044 Off  ch=12 n=48 v=101
6044 Off  ch=14 n=62 v=57
6059 On   ch=3 n=60 v=100
6059 On   ch=12 n=52 v=110
6059 On   ch=14 n=57 v=89
6074 Off  ch=12 n=52 v=110
6074 Off  ch=14 n=57 v=89
6088 Off  ch=3 n=60 v=100
6089 On   ch=11 n=38 v=123
6089 On   ch=12 n=57 v=108
6089 On   ch=14 n=62 v=57
6104 Off  ch=12 n=57 v=108
6104 Off  ch=14 n=62 v=57
6109 Off  ch=11 n=38 v=123
6119 On   ch=1 n=48 v=91
6119 On   ch=2 n=60 v=100
6119 On   ch=12 n=48 v=101
6120 On   ch=14 n=57 v=89
6134 Off  ch=12 n=48 v=101
6134 Off  ch=14 n=57 v=89
6148 Off  ch=1 n=48 v=91
6148 Off  ch=2 n=60 v=100
6149 On   ch=12 n=52 v=110
6149 On   ch=14 n=62 v=57
6164 Off  ch=12 n=52 v=110
6164 Off  ch=14 n=62 v=57
6179 On   ch=3 n=60 v=100
6179 On   ch=11 n=38 v=122
6179 On   ch=12 n=57 v=108
6180 On   ch=14 n=57 v=89
6194 Off  ch=12 n=57 v=108
6194 Off  ch=14 n=57 v=89
6198 Off  ch=11 n=38 v=122
6208 Off  ch=3 n=60 v=100
6209 On   ch=4 n=60 v=100
6209 On   ch=12 n=48 v=101
6209 On   ch=14 n=62 v=57
6224 Off  ch=12 n=48 v=101
6224 Off  ch=14 n=62 v=57
6238 Off  ch=4 n=60 v=100
6239 On   ch=1 n=48 v=91
6239 On   ch=11 n=38 v=124
6239 On   ch=12 n=52 v=110
6240 On   ch=13 n=84 v=121
6240 On   ch=14 n=57 v=89
6244 Off  ch=13 n=81 v=110
6254 Off  ch=12 n=52 v=110
6254 Off  ch=14 n=57 v=89
6258 Off  ch=11 n=38 v=124
6268 Off  ch=1 n=48 v=91
6269 On   ch=12 n=57 v=108
6269 On   ch=14 n=62 v=57
6284 Off  ch=12 n=57 v=108
6284 Off  ch=14 n=62 v=57
6299 On   ch=3 n=60 v=100
6299 On   ch=12 n=48 v=101
6299 On   ch=14 n=57 v=89
6314 Off  ch=12 n=48 v=101
6314 Off  ch=14 n=57 v=89
6328 Off  ch=3 n=60 v=100
6329 On   ch=11 n=38 v=124
6329 On   ch=12 n=52 v=110
6329 On   ch=14 n=62 v=57
6344 Off  ch=12 n=52 v=110
6344 Off  ch=14 n=62 v=57
6350 Off  ch=11 n=38 v=124
6359 On   ch=1 n=48 v=91
6359 On   ch=2 n=60 v=100
6359 On   ch=12 n=57 v=108
6359 On   ch=14 n=57 v=89
6374 Off  ch=12 n=57 v=108
6374 Off  ch=14 n=57 v=89
6387 Off  ch=1 n=48 v=91
6388 Off  ch=2 n=60 v=100
6389 On   ch=12 n=48 v=101
6389 On   ch=14 n=62 v=57
6404 Off  ch=12 n=48 v=101
6404 Off  ch=14 n=62 v=57
6419 On   ch=3 n=60 v=100
6419 On   ch=11 n=38 v=123
6419 On   ch=12 n=52 v=110
6420 On   ch=14 n=57 v=89
6434 Off  ch=12 n=52 v=110
6434 Off  ch=14 n=57 v=89
6436 Off  ch=11 n=38 v=123
6448 Off  ch=3 n=60 v=100
6449 On   ch=12 n=57 v=108
6449 On   ch=14 n=62 v=57
6464 Off  ch=12 n=57 v=108
6464 Off  ch=14 n=62 v=57
6479 On   ch=1 n=48 v=91
6479 On   ch=11 n=38 v=120
6479 On   ch=12 n=48 v=101
6479 On   ch=14 n=57 v=89
6494 Off  ch=12 n=48 v=101
6494 Off  ch=14 n=57 v=89
6496 Off  ch=11 n=38 v=120
6507 Off  ch=1 n=48 v=91
6509 On   ch=12 n=52 v=110
6509 On   ch=14 n=62 v=57
6524 Off  ch=12 n=52 v=110
6524 Off  ch=14 n=62 v=57
6539 On   ch=3 n=60 v=100
6539 On   ch=11 n=38 v=120
6539 On   ch=12 n=57 v=108
6540 On   ch=14 n=57 v=89
6554 Off  ch=12 n=57 v=108
6554 Off  ch=14 n=57 v=89
6555 Off  ch=11 n=38 v=120
6568 Off  ch=3 n=60 v=100
6569 On   ch=12 n=48 v=101
6569 On   ch=14 n=62 v=57
6584 Off  ch=12 n=48 v=101
6584 Off  ch=14 n=62 v=57
6599 On   ch=1 n=48 v=91
6599 On   ch=2 n=60 v=100
6599 On   ch=11 n=38 v=121
6600 On   ch=12 n=52 v=110
6600 On   ch=14 n=57 v=89
6614 Off  ch=12 n=52 v=110
6614 Off  ch=14 n=57 v=89
6615 Off  ch=11 n=38 v=121
6628 Off  ch=1 n=48 v=91
6628 Off  ch=2 n=60 v=100
6629 On   ch=12 n=57 v=108
6629 On   ch=14 n=62 v=57
6644 Off  ch=12 n=57 v=108
6644 Off  ch=14 n=62 v=57
6659 On   ch=3 n=60 v=100
6659 On   ch=11 n=38 v=121
6659 On   ch=12 n=48 v=101
6660 On   ch=14 n=57 v=89
6674 Off  ch=12 n=48 v=101
6674 Off  ch=14 n=57 v=89
6675 Off  ch=11 n=38 v=121
6687 Off  ch=3 n=60 v=100
6689 On   ch=4 n=60 v=100
6689 On   ch=12 n=52 v=110
6689 On   ch=14 n=62 v=57
6704 Off  ch=12 n=52 v=110
6704 Off  ch=14 n=62 v=57
6705 Off  ch=13 n=84 v=121
6718 Off  ch=4 n=60 v=100
6719 On   ch=1 n=48 v=91
6719 On   ch=11 n=40 v=116
6719 On   ch=12 n=52 v=110
6720 On   ch=13 n=83 v=105
6720 On   ch=14 n=57 v=89
6734 Off  ch=12 n=52 v=110
6734 Off  ch=14 n=57 v=89
6748 Off  ch=1 n=48 v=91
6749 On   ch=12 n=57 v=108
6749 On   ch=14 n=64 v=109
6751 Off  ch=11 n=40 v=116
6764 Off  ch=12 n=57 v=108
6764 Off  ch=14 n=64 v=109
6779 On   ch=3 n=60 v=100
6779 On   ch=12 n=45 v=112
6779 On   ch=14 n=57 v=89
6794 Off  ch=12 n=45 v=112
6794 Off  ch=14 n=57 v=89
6808 Off  ch=3 n=60 v=100
6809 On   ch=12 n=52 v=110
6809 On   ch=14 n=64 v=109
6824 Off  ch=12 n=52 v=110
6824 Off  ch=14 n=64 v=109
6839 On   ch=1 n=48 v=91
6839 On   ch=2 n=60 v=100
6839 On   ch=11 n=40 v=121
6839 On   ch=12 n=57 v=108
6840 On   ch=14 n=57 v=89
6854 Off  ch=12 n=57 v=108
6854 Off  ch=14 n=57 v=89
6864 Off  ch=11 n=40 v=121
6868 Off  ch=1 n=48 v=91
6868 Off  ch=2 n=60 v=100
6869 On   ch=12 n=45 v=112
6869 On   ch=14 n=64 v=109
6884 Off  ch=12 n=45 v=112
6884 Off  ch=14 n=64 v=109
6899 On   ch=3 n=60 v=100
6899 On   ch=11 n=40 v=120
6899 On   ch=12 n=52 v=110
6900 On   ch=14 n=57 v=89
6914 Off  ch=12 n=52 v=110
6914 Off  ch=14 n=57 v=89
6920 Off  ch=11 n=40 v=120
6927 Off  ch=3 n=60 v=100
6929 On   ch=12 n=57 v=108
6929 On   ch=14 n=64 v=109
6944 Off  ch=12 n=57 v=108
6944 Off  ch=14 n=64 v=109
6959 On   ch=1 n=48 v=91
6959 On   ch=11 n=40 v=119
6959 On   ch=12 n=45 v=112
6959 On   ch=14 n=57 v=89
6974 Off  ch=12 n=45 v=112
6974 Off  ch=14 n=57 v=89
6988 Off  ch=1 n=48 v=91
6989 On   ch=12 n=52 v=110
6989 On   ch=14 n=64 v=109
6990 Off  ch=11 n=40 v=119
7004 Off  ch=12 n=52 v=110
7004 Off  ch=14 n=64 v=109
7019 On   ch=3 n=60 v=100
7019 On   ch=12 n=57 v=108
7019 On   ch=14 n=57 v=89
7034 Off  ch=12 n=57 v=108
7034 Off  ch=14 n=57 v=89
7048 Off  ch=3 n=60 v=100
7049 On   ch=11 n=40 v=119
7049 On   ch=12 n=45 v=112
7049 On   ch=14 n=64 v=109
7064 Off  ch=12 n=45 v=112
7064 Off  ch=14 n=64 v=109
7075 Off  ch=11 n=40 v=119
7079 On   ch=1 n=48 v=91
7079 On   ch=2 n=60 v=100
7079 On   ch=12 n=52 v=110
7080 On   ch=14 n=57 v=89
7094 Off  ch=12 n=52 v=110
7094 Off  ch=14 n=57 v=89
7107 Off  ch=1 n=48 v=91
7108 Off  ch=2 n=60 v=100
7109 On   ch=12 n=57 v=108
7109 On   ch=14 n=64 v=109
7124 Off  ch=12 n=57 v=108
7124 Off  ch=14 n=64 v=109
7139 On   ch=3 n=60 v=100
7139 On   ch=11 n=40 v=106
7139 On   ch=12 n=45 v=112
7139 On   ch=14 n=57 v=89
7154 Off  ch=12 n=45 v=112
7154 Off  ch=14 n=57 v=89
7164 Off  ch=11 n=40 v=106
7168 Off  ch=3 n=60 v=100
7169 On   ch=4 n=60 v=100
7169 On   ch=12 n=52 v=110
7169 On   ch=14 n=64 v=109
7184 Off  ch=12 n=52 v=110
7184 Off  ch=14 n=64 v=109
7197 Off  ch=4 n=60 v=100
7199 On   ch=1 n=48 v=91
7199 On   ch=11 n=40 v=118
7199 On   ch=12 n=57 v=108
7199 On   ch=14 n=57 v=89
7214 Off  ch=12 n=57 v=108
7214 Off  ch=14 n=57 v=89
7228 Off  ch=1 n=48 v=91
7229 On   ch=12 n=45 v=112
7229 On   ch=14 n=65 v=104
7230 Off  ch=11 n=40 v=118
7244 Off  ch=12 n=45 v=112
7244 Off  ch=14 n=65 v=104
7259 On   ch=3 n=60 v=100
7259 On   ch=12 n=52 v=110
7259 On   ch=14 n=57 v=89
7274 Off  ch=12 n=52 v=110
7274 Off  ch=14 n=57 v=89
7287 Off  ch=3 n=60 v=100
7289 On   ch=11 n=40 v=117
7289 On   ch=12 n=57 v=108
7289 On   ch=14 n=65 v=104
7304 Off  ch=12 n=57 v=108
7304 Off  ch=14 n=65 v=104
7316 Off  ch=11 n=40 v=117
7319 On   ch=1 n=48 v=91
7319 On   ch=2 n=60 v=100
7319 On   ch=12 n=45 v=112
7319 On   ch=14 n=57 v=89
7334 Off  ch=12 n=45 v=112
7334 Off  ch=14 n=57 v=89
7347 Off  ch=1 n=48 v=91
7348 Off  ch=2 n=60 v=100
7349 On   ch=12 n=52 v=110
7349 On   ch=14 n=65 v=104
7364 Off  ch=12 n=52 v=110
7364 Off  ch=14 n=65 v=104
7379 On   ch=3 n=60 v=100
7379 On   ch=11 n=40 v=121
7379 On   ch=12 n=57 v=108
7379 On   ch=14 n=57 v=89
7394 Off  ch=12 n=57 v=108
7394 Off  ch=14 n=57 v=89
7400 Off  ch=11 n=40 v=121
7407 Off  ch=3 n=60 v=100
7409 On   ch=12 n=45 v=112
7409 On   ch=14 n=65 v=104
7424 Off  ch=12 n=45 v=112
7424 Off  ch=14 n=65 v=104
7439 On   ch=1 n=48 v=91
7439 On   ch=11 n=40 v=117
7439 On   ch=12 n=52 v=110
7439 On   ch=13 n=84 v=106
7440 On   ch=14 n=57 v=89
7449 Off  ch=13 n=83 v=105
7454 Off  ch=12 n=52 v=110
7454 Off  ch=14 n=57 v=89
7467 Off  ch=1 n=48 v=91
7469 On   ch=12 n=57 v=108
7469 On   ch=14 n=65 v=104
7470 Off  ch=11 n=40 v=117
7484 Off  ch=12 n=57 v=108
7484 Off  ch=14 n=65 v=104
7499 On   ch=3 n=60 v=100
7499 On   ch=11 n=43 v=104
7499 On   ch=12 n=45 v=112
7499 On   ch=14 n=57 v=89
7514 Off  ch=12 n=45 v=112
7514 Off  ch=14 n=57 v=89
7528 Off  ch=3 n=60 v=100
7529 On   ch=12 n=52 v=110
7529 On   ch=14 n=64 v=97
7540 Off  ch=11 n=43 v=104
7544 Off  ch=12 n=52 v=110
7544 Off  ch=14 n=64 v=97
7556 Off  ch=13 n=84 v=106
7559 On   ch=1 n=48 v=91
7559 On   ch=2 n=60 v=100
7559 On   ch=11 n=40 v=114
7559 On   ch=12 n=57 v=108
7560 On   ch=13 n=83 v=110
7560 On   ch=14 n=57 v=89
7574 Off  ch=12 n=57 v=108
7574 Off  ch=14 n=57 v=89
7588 Off  ch=1 n=48 v=91
7588 Off  ch=2 n=60 v=100
7588 Off  ch=11 n=40 v=114
7589 On   ch=12 n=45 v=112
7589 On   ch=14 n=64 v=97
7604 Off  ch=12 n=45 v=112
7604 Off  ch=14 n=64 v=97
7619 On   ch=3 n=60 v=100
7619 On   ch=11 n=43 v=112
7619 On   ch=12 n=52 v=110
7619 On   ch=14 n=57 v=89
7634 Off  ch=12 n=52 v=110
7634 Off  ch=14 n=57 v=89
7648 Off  ch=3 n=60 v=100
7649 On   ch=4 n=60 v=100
7649 On   ch=12 n=57 v=108
7649 On   ch=14 n=64 v=97
7664 Off  ch=12 n=57 v=108
7664 Off  ch=14 n=64 v=97
7669 Off  ch=11 n=43 v=112
7677 Off  ch=4 n=60 v=100
7679 Off  ch=13 n=83 v=110
